#define tall_5_width 12
#define tall_5_height 12
static unsigned char tall_5_bits[] = {
   0x00, 0x00, 0x00, 0x00, 0x9e, 0x07, 0x9e, 0x07, 0x9e, 0x07, 0x00, 0x00,
   0x00, 0x00, 0x9e, 0x07, 0x9e, 0x07, 0x9e, 0x07, 0x00, 0x00, 0x00, 0x00 };
