/* XPM */
static char *tile_grid_v_scaled[] = {
/* columns rows colors chars-per-pixel */
"14 14 2 1 ",
"  c #DF0031",
". c None",
/* pixels */
"..............",
"..............",
".           ..",
". ...... .. ..",
". ...... .. ..",
".        .. ..",
". ...... .. ..",
". ......    ..",
". ...... .. ..",
".        .. ..",
". ...... .. ..",
". ...... .. ..",
".           ..",
".............."
};
