/* XPM */
static char *spiral_scaled[] = {
/* columns rows colors chars-per-pixel */
"14 14 2 1 ",
"  c #DCDCCC",
". c None",
/* pixels */
"..............",
"..............",
".           ..",
". .... .... ..",
". .... .... ..",
". .... .... ..",
". ....      ..",
". .... .. . ..",
". .... .. . ..",
". ....    . ..",
". .... .. . ..",
". .... .. . ..",
".           ..",
".............."
};
