#define tall_2_width 12
#define tall_2_height 12
static unsigned char tall_2_bits[] = {
   0x00, 0x00, 0x00, 0x00, 0xfe, 0x07, 0xfe, 0x07, 0xfe, 0x07, 0xfe, 0x07,
   0x00, 0x00, 0xde, 0x07, 0xde, 0x07, 0xde, 0x07, 0x00, 0x00, 0x00, 0x00 };
