#define tall_4_width 12
#define tall_4_height 12
static unsigned char tall_4_bits[] = {
   0x00, 0x00, 0x00, 0x00, 0xee, 0x07, 0xee, 0x07, 0xee, 0x07, 0xee, 0x07,
   0x0e, 0x00, 0xae, 0x05, 0xae, 0x05, 0xae, 0x05, 0x00, 0x00, 0x00, 0x00 };
