#define tall_5_width 12
#define tall_5_height 12
static unsigned char tall_5_bits[] = {
   0x00, 0x00, 0x00, 0x00, 0xb6, 0x05, 0x00, 0x00, 0xfe, 0x07, 0xfe, 0x07,
   0xfe, 0x07, 0xfe, 0x07, 0xfe, 0x07, 0xfe, 0x07, 0x00, 0x00, 0x00, 0x00 };
