#define tall_00_width 12
#define tall_00_height 12
static unsigned char tall_00_bits[] = {
   0x00, 0x00, 0x00, 0x00, 0xfe, 0x07, 0xfe, 0x07, 0xfe, 0x07, 0xfe, 0x07,
   0x00, 0x00, 0x6e, 0x07, 0x6e, 0x07, 0x6e, 0x07, 0x00, 0x00, 0x00, 0x00 };
