#define tall_0_width 12
#define tall_0_height 12
static unsigned char tall_0_bits[] = {
   0x00, 0x00, 0x00, 0x00, 0xee, 0x07, 0xee, 0x07, 0x0e, 0x00, 0xee, 0x07,
   0xee, 0x07, 0x0e, 0x00, 0xee, 0x07, 0xee, 0x07, 0x00, 0x00, 0x00, 0x00 };
