#define tall_3_width 12
#define tall_3_height 12
static unsigned char tall_3_bits[] = {
   0x00, 0x00, 0x00, 0x00, 0xba, 0x07, 0xba, 0x07, 0xba, 0x07, 0x02, 0x00,
   0xba, 0x07, 0xba, 0x07, 0xba, 0x07, 0xba, 0x07, 0x00, 0x00, 0x00, 0x00 };
