#define tall_1_width 12
#define tall_1_height 12
static unsigned char tall_1_bits[] = {
   0x00, 0x00, 0x00, 0x00, 0xde, 0x06, 0x1e, 0x00, 0xde, 0x07, 0xde, 0x07,
   0xde, 0x07, 0xde, 0x07, 0xde, 0x07, 0xde, 0x07, 0x00, 0x00, 0x00, 0x00 };
